# xmcd
#
# Track frame offsets:
#	150
#	12452
#	26772
#	39750
#	56619
#	73198
#	90504
#	107565
#	120618
#	134121
#	148524
#	162098
#	178076
#	194542
#	208719
#	228002
#	243155
#	259299
#
# Disc length: 3701 seconds
#
# Revision: 2
# Processed by: cddbd v1.5.2PL0 Copyright (c) Steve Scherf et al.
# Submitted via: audiograbber 1.83.01
#
DISCID=fd0e7312
DTITLE=Various Artist - Promo Only Country Radio 2010 - 08
DYEAR=2010
DGENRE=Country
TTITLE0=The Janedear Girls - Wildflower
TTITLE1=Eric Church - Smoke A Little Smoke
TTITLE2=Toby Keith - Trailerhood
TTITLE3=Steel Magnolia - Just by Being You (Halo and Wings)
TTITLE4=The Radny Rogers Band - Too Late for Goodbye
TTITLE5=Lady Antebellum - Our Kind of Love
TTITLE6=Bo Bice - You Take Yourself with You
TTITLE7=LeAnn Rimes - Swingin'
TTITLE8=Billy Currington - Pretty Good at Drinkin' Beer
TTITLE9=Stealing Angels - He Better Be Dead
TTITLE10=Kevin Fowler - Pound Sign (#?*!)
TTITLE11=Julianne Hough - Is that So Wrong
TTITLE12=Blackberry Smoke - Good One Comin' on
TTITLE13=Frankie Ballard - Tell Me You Get Lonely
TTITLE14=Darren Kozelsky - Somebody Find Me A Preacher
TTITLE15=The Warren Brothers - Dear Mr. God
TTITLE16=Sunny Sweeney - From A Table Away
TTITLE17=Miranda Lambert - The House that Built Me (Acoustic Version)
EXTD=
EXTT0=
EXTT1=
EXTT2=
EXTT3=
EXTT4=
EXTT5=
EXTT6=
EXTT7=
EXTT8=
EXTT9=
EXTT10=
EXTT11=
EXTT12=
EXTT13=
EXTT14=
EXTT15=
EXTT16=
EXTT17=
PLAYORDER=
